<svg width="22" height="27" viewBox="0 0 22 27" fill="none" xmlns="http://www.w3.org/2000/svg">
<path d="M10.6209 26.0384L10.6214 26.0387L10.9515 26.1851L11.2946 26.0714L10.6209 26.0384ZM10.6209 26.0384C10.4138 25.9475 7.83271 24.7833 5.30583 22.6312C2.77658 20.477 0.326422 17.3548 0.326422 13.3477V6.28639C0.326795 5.63844 0.531591 5.00716 0.911648 4.48238C1.29172 3.95759 1.82767 3.56609 2.4432 3.36364L2.44353 3.36353M10.6209 26.0384L2.44353 3.36353M2.44353 3.36353L11 0.527167L19.5564 3.36353L19.5568 3.36364M2.44353 3.36353L19.5568 3.36364M19.5568 3.36364C20.1723 3.56609 20.7083 3.95759 21.0883 4.48238M19.5568 3.36364L21.0883 4.48238M11 2.48081L11.0472 2.49647L18.9651 5.12205C18.9652 5.12211 18.9654 5.12216 18.9656 5.12221C19.2109 5.20245 19.4246 5.35824 19.5761 5.56728C19.7276 5.77645 19.8091 6.02823 19.8088 6.28654M11 2.48081L2.54538 5.65529C2.4124 5.83883 2.3409 6.05974 2.34114 6.28639H2.19114M11 2.48081L10.9528 2.49647L3.0349 5.12205C3.03476 5.1221 3.03463 5.12214 3.0345 5.12218M11 2.48081L3.0345 5.12218M19.8088 6.28654L19.6588 6.28639M19.8088 6.28654V6.28639H19.6588M19.8088 6.28654V13.3477C19.8088 16.7935 18.0608 19.3248 16.106 21.0762C14.1526 22.8264 11.9825 23.8078 11.1068 24.16L11.0442 24.1852L10.9838 24.155C10.1084 23.7175 7.91672 22.5284 5.94179 20.6983C3.96899 18.8701 2.19114 16.382 2.19114 13.3477L2.19114 6.28654L2.19114 6.28639M19.6588 6.28639C19.6591 6.05974 19.5876 5.83883 19.4546 5.65529C19.3216 5.47176 19.134 5.33501 18.9185 5.26464L19.6588 13.3477V6.28639ZM2.19114 6.28639C2.1909 6.02813 2.27238 5.77641 2.42391 5.56728C2.5754 5.35822 2.78912 5.20243 3.0345 5.12218M2.19114 6.28639L3.0345 5.12218M21.0883 4.48238C21.4684 5.00717 21.6732 5.6385 21.6736 6.28647M21.0883 4.48238L21.6736 6.28647M21.6736 6.28647V13.3477C21.6736 17.9278 19.1957 21.0696 16.6502 23.0909C14.1042 25.1126 11.5037 26.0016 11.2948 26.0713L21.6736 6.28647Z" fill="#666666" stroke="#F5F5F5" stroke-width="0.3"/>
<path d="M10.0387 15.9491H10.0378H10.0032C9.74995 15.9451 9.5001 15.8898 9.26875 15.7866C9.03705 15.6832 8.82873 15.534 8.65637 15.3478L8.65639 15.3478L8.65446 15.3458L6.26257 12.8564L7.60562 11.5683L9.93061 13.9928L10.0366 14.1033L10.1449 13.995L15.6466 8.49338L16.9649 9.8117L11.3767 15.3999C11.3767 15.3999 11.3767 15.3999 11.3767 15.3999C11.201 15.5754 10.9924 15.7143 10.7627 15.8085C10.533 15.9028 10.2869 15.9506 10.0387 15.9491Z" fill="#666666" stroke="#F5F5F5" stroke-width="0.3"/>
</svg>
