<svg width="26" height="26" viewBox="0 0 26 26" fill="none" xmlns="http://www.w3.org/2000/svg">
<path fill-rule="evenodd" clip-rule="evenodd" d="M18.4176 0.918213C22.6538 0.918213 25.5001 3.89071 25.5001 8.31321V18.5232C25.5001 22.9457 22.6538 25.9182 18.4151 25.9182H7.58009C3.34509 25.9182 0.500092 22.9457 0.500092 18.5232V8.31321C0.500092 3.89071 3.34509 0.918213 7.58009 0.918213H18.4176ZM18.4176 2.79321H7.58009C4.41884 2.79321 2.37509 4.95946 2.37509 8.31321V18.5232C2.37509 21.877 4.41884 24.0432 7.58009 24.0432H18.4151C21.5801 24.0432 23.6251 21.877 23.6251 18.5232V8.31321C23.6251 4.95946 21.5801 2.79321 18.4176 2.79321ZM9.04609 10.1662C10.5152 10.1672 11.7569 11.1432 12.1604 12.4794L19.2622 12.4801C19.7797 12.4801 20.1997 12.9001 20.1997 13.4176V15.7338C20.1997 16.2513 19.7797 16.6713 19.2622 16.6713C18.7447 16.6713 18.3247 16.2513 18.3247 15.7338V14.3551L16.6638 14.3545L16.6645 15.7338C16.6645 16.2513 16.2445 16.6713 15.727 16.6713C15.2095 16.6713 14.7895 16.2513 14.7895 15.7338L14.7888 14.3545L12.161 14.3557C11.7577 15.6934 10.5141 16.6712 9.04609 16.6712C7.25234 16.6712 5.79359 15.2112 5.79359 13.4187C5.79359 11.625 7.25234 10.1662 9.04609 10.1662ZM9.04859 12.0412C8.28609 12.0412 7.66859 12.6587 7.66859 13.4187C7.66859 14.1787 8.28609 14.7962 9.04609 14.7962C9.80484 14.7962 10.4236 14.1787 10.4236 13.4187C10.4236 12.66 9.80609 12.0425 9.04859 12.0412Z" fill="#666666"/>
</svg>
